<svg width="514" height="371" viewBox="0 0 514 371" fill="none" xmlns="http://www.w3.org/2000/svg">
<path d="M328.631 367.572C288.669 376.953 278.085 324.522 239.384 324.887C188.749 325.366 132.884 379.012 86.3077 369.861C39.0349 360.572 15.0743 319.317 5.34012 278.9C-5.18801 235.187 -1.3727 183.319 30.2976 137.303C61.5955 91.8274 117.53 57.7236 172.892 35.4498C221.949 15.7133 269.244 26.3509 319.018 21.1432C367.137 16.1086 422.353 -10.6794 460.614 5.34619C498.942 21.3993 512.886 62.7365 513.043 102.409C513.182 137.497 481.811 172.59 461.416 208.004C445.832 235.063 428.686 260.123 407.663 285.387C383.299 314.666 366.753 358.624 328.631 367.572Z" fill="#484C9A"/>
</svg>
